<svg width="140" height="26" viewBox="0 0 140 26" fill="none" xmlns="http://www.w3.org/2000/svg">
<g clip-path="url(#clip0_1_8)">
<path d="M7.20475 22.8971L0 10.722H5.3897L9.79264 2.98242H18.7469L7.20475 22.8971Z" fill="#2262FF"/>
<path d="M23.3363 10.624H14.248L21.468 23.0177L26.0029 15.2177L23.3363 10.624Z" fill="#2262FF"/>
<path d="M34 23.1721V5.81899H36.9891V23.1721H34Z" fill="white"/>
<path d="M47.1537 9.78338C48.7064 9.78338 49.9145 10.1672 50.778 10.9347C51.6499 11.6944 52.0858 12.9169 52.0858 14.6024V23.1721H49.1589V15.1246C49.1589 14.1039 48.9389 13.3403 48.4988 12.8338C48.0587 12.3195 47.3779 12.0623 46.4562 12.0623C45.1194 12.0623 44.1895 12.454 43.6664 13.2374C43.1516 14.0208 42.8942 15.1563 42.8942 16.6439V23.1721H39.9673V10.0326H42.2465L42.6575 11.8131H42.8194C43.1184 11.3541 43.4879 10.9782 43.9279 10.6855C44.3763 10.3848 44.8745 10.1592 45.4225 10.0089C45.9788 9.85856 46.5559 9.78338 47.1537 9.78338Z" fill="white"/>
<path d="M60.2078 23.4095C58.9042 23.4095 57.7749 23.1682 56.8201 22.6855C55.8652 22.2028 55.1304 21.4629 54.6156 20.4659C54.1008 19.4688 53.8434 18.2028 53.8434 16.6677C53.8434 15.0692 54.1257 13.7636 54.6903 12.7507C55.2549 11.7379 56.0354 10.9901 57.0318 10.5074C58.0365 10.0247 59.1865 9.78338 60.4818 9.78338C61.3038 9.78338 62.0469 9.86251 62.7112 10.0208C63.3837 10.1711 63.9525 10.3571 64.4175 10.5786L63.5456 12.8101C63.0391 12.6123 62.5202 12.4461 61.9888 12.3116C61.4574 12.1771 60.9467 12.1098 60.4569 12.1098C59.6514 12.1098 58.9789 12.2799 58.4392 12.6202C57.9078 12.9604 57.5092 13.4669 57.2435 14.1395C56.9861 14.8121 56.8574 15.6469 56.8574 16.6439C56.8574 17.6093 56.9903 18.4243 57.256 19.089C57.5217 19.7458 57.9161 20.2443 58.4392 20.5846C58.9623 20.9169 59.6058 21.0831 60.3697 21.0831C61.1253 21.0831 61.802 20.996 62.3998 20.822C62.9976 20.6479 63.5622 20.4224 64.0936 20.1454V22.5668C63.5705 22.8516 63.0101 23.0613 62.4122 23.1958C61.8144 23.3383 61.0796 23.4095 60.2078 23.4095Z" fill="white"/>
<path d="M72.7885 9.78338C73.021 9.78338 73.2743 9.79525 73.5483 9.81899C73.8223 9.84273 74.0589 9.87438 74.2582 9.91395L73.9842 12.5252C73.8098 12.4777 73.5939 12.4421 73.3365 12.4184C73.0875 12.3947 72.8633 12.3828 72.664 12.3828C72.1409 12.3828 71.6427 12.4659 71.1694 12.632C70.6961 12.7903 70.2768 13.0356 69.9115 13.368C69.5462 13.6924 69.2597 14.0999 69.0521 14.5905C68.8445 15.0811 68.7407 15.6508 68.7407 16.2997V23.1721H65.8014V10.0326H68.0931L68.4917 12.3472H68.6287C68.9027 11.8803 69.2431 11.453 69.6499 11.0653C70.0568 10.6775 70.5218 10.3689 71.0449 10.1395C71.5763 9.90208 72.1575 9.78338 72.7885 9.78338Z" fill="white"/>
<path d="M78.2078 10.0326V23.1721H75.281V10.0326H78.2078ZM76.7631 5C77.2115 5 77.5976 5.11474 77.9214 5.34421C78.2535 5.57369 78.4196 5.96934 78.4196 6.53116C78.4196 7.08506 78.2535 7.48071 77.9214 7.7181C77.5976 7.94758 77.2115 8.06231 76.7631 8.06231C76.2981 8.06231 75.9037 7.94758 75.5799 7.7181C75.2644 7.48071 75.1066 7.08506 75.1066 6.53116C75.1066 5.96934 75.2644 5.57369 75.5799 5.34421C75.9037 5.11474 76.2981 5 76.7631 5Z" fill="white"/>
<path d="M87.9489 9.78338C89.5847 9.78338 90.8966 10.3531 91.8846 11.4926C92.881 12.632 93.3792 14.3254 93.3792 16.5727C93.3792 18.0603 93.1467 19.3145 92.6817 20.3353C92.2251 21.3482 91.5816 22.1157 90.7513 22.638C89.9292 23.1523 88.9702 23.4095 87.8742 23.4095C87.1767 23.4095 86.5706 23.3225 86.0558 23.1484C85.541 22.9743 85.101 22.7488 84.7356 22.4718C84.3703 22.1869 84.0631 21.8783 83.814 21.546H83.6396C83.6811 21.8625 83.7185 22.2146 83.7517 22.6024C83.7932 22.9822 83.814 23.3304 83.814 23.6469V29H80.8747V10.0326H83.266L83.677 11.8487H83.814C84.0714 11.4768 84.3827 11.1325 84.7481 10.816C85.1217 10.4995 85.5701 10.2502 86.0932 10.0682C86.6246 9.87834 87.2432 9.78338 87.9489 9.78338ZM87.1643 12.0623C86.3589 12.0623 85.7112 12.2166 85.2214 12.5252C84.7398 12.8259 84.3869 13.2809 84.1627 13.8902C83.9468 14.4995 83.8306 15.2631 83.814 16.181V16.5727C83.814 17.546 83.9178 18.3729 84.1253 19.0534C84.3412 19.726 84.6941 20.2404 85.184 20.5964C85.6822 20.9446 86.3547 21.1187 87.2017 21.1187C87.9157 21.1187 88.5053 20.9327 88.9702 20.5608C89.4435 20.1889 89.7964 19.6588 90.0289 18.9703C90.2614 18.2819 90.3776 17.4708 90.3776 16.5371C90.3776 15.1207 90.1119 14.0208 89.5805 13.2374C89.0574 12.454 88.252 12.0623 87.1643 12.0623Z" fill="white"/>
<path d="M100.368 21.1543C100.75 21.1543 101.128 21.1227 101.501 21.0593C101.875 20.9881 102.215 20.905 102.522 20.8101V22.9228C102.199 23.0574 101.779 23.1721 101.265 23.2671C100.75 23.362 100.214 23.4095 99.6579 23.4095C98.8774 23.4095 98.1758 23.2868 97.553 23.0415C96.9303 22.7883 96.4363 22.3571 96.0709 21.7478C95.7056 21.1385 95.5229 20.2957 95.5229 19.2196V12.1573H93.6423V10.911L95.6599 9.92582L96.6189 7.11276H98.4622V10.0326H102.41V12.1573H98.4622V19.184C98.4622 19.8487 98.6366 20.3432 98.9853 20.6677C99.3341 20.9921 99.7949 21.1543 100.368 21.1543Z" fill="white"/>
<path d="M116 16.5727C116 17.6647 115.851 18.634 115.552 19.4807C115.253 20.3274 114.817 21.0435 114.244 21.6291C113.671 22.2067 112.982 22.6499 112.176 22.9585C111.371 23.2592 110.462 23.4095 109.449 23.4095C108.502 23.4095 107.635 23.2592 106.846 22.9585C106.057 22.6499 105.372 22.2067 104.791 21.6291C104.218 21.0435 103.774 20.3274 103.458 19.4807C103.143 18.634 102.985 17.6647 102.985 16.5727C102.985 15.1246 103.246 13.8981 103.769 12.8932C104.301 11.8803 105.056 11.1088 106.036 10.5786C107.016 10.0485 108.183 9.78338 109.536 9.78338C110.806 9.78338 111.927 10.0485 112.899 10.5786C113.87 11.1088 114.63 11.8803 115.178 12.8932C115.726 13.906 116 15.1325 116 16.5727ZM105.999 16.5727C105.999 17.5302 106.119 18.3492 106.36 19.0297C106.609 19.7102 106.991 20.2324 107.506 20.5964C108.021 20.9525 108.685 21.1306 109.499 21.1306C110.312 21.1306 110.977 20.9525 111.491 20.5964C112.006 20.2324 112.384 19.7102 112.625 19.0297C112.866 18.3492 112.986 17.5302 112.986 16.5727C112.986 15.6152 112.866 14.8042 112.625 14.1395C112.384 13.4669 112.006 12.9565 111.491 12.6083C110.977 12.2522 110.308 12.0742 109.486 12.0742C108.274 12.0742 107.39 12.4619 106.833 13.2374C106.277 14.0129 105.999 15.1246 105.999 16.5727Z" fill="white"/>
</g>
<defs>
<clipPath id="clip0_1_8">
<rect width="140" height="26" fill="white"/>
</clipPath>
</defs>
</svg>
